<svg version="1.1" id="Layer_1" xmlns="http://www.w3.org/2000/svg" xmlns:xlink="http://www.w3.org/1999/xlink" x="0px" y="0px"
	 width="100%" viewBox="0 0 200 200" enable-background="new 0 0 200 200" xml:space="preserve">
<path fill="#FEFEFE" opacity="1.000000" stroke="none" 
	d="
M85.000000,201.000000 
	C57.030193,201.000000 29.060385,201.000000 1.045289,201.000000 
	C1.045289,134.435440 1.045289,67.870842 1.045289,1.000000 
	C41.353710,1.000000 81.708199,1.000000 122.458084,1.349189 
	C120.988197,2.513088 119.122902,3.327799 116.875282,3.963462 
	C110.627602,1.604633 106.107559,4.068591 101.654533,8.145035 
	C95.525467,9.896883 89.707039,11.349165 83.987534,13.120840 
	C80.250618,14.278383 76.657211,15.899170 72.811661,17.275230 
	C72.623802,17.238003 72.251602,17.148069 71.819183,17.094345 
	C65.850792,16.789228 60.543430,17.461401 56.479019,21.693439 
	C55.367001,22.851326 54.883282,24.612625 54.093544,26.082275 
	C54.075859,26.067539 54.112755,26.069204 53.863815,26.132954 
	C53.409843,26.461149 53.204819,26.725594 52.829567,27.298397 
	C53.108925,29.382483 53.558502,31.158211 53.846325,33.268166 
	C54.407166,41.515800 57.814079,48.386116 62.288254,55.154465 
	C64.928116,59.317753 67.263611,63.286552 69.722595,67.576813 
	C72.860321,70.618355 75.874557,73.338440 79.021210,76.377579 
	C84.823586,82.867073 92.485260,84.471222 100.219894,86.004951 
	C102.340919,86.425537 104.358635,87.367188 106.196068,88.336670 
	C102.996666,93.739540 100.024940,98.875458 96.702454,104.095001 
	C94.623604,107.791801 92.895523,111.404976 91.002777,115.358658 
	C90.440971,117.361549 90.043816,119.023933 89.389008,120.933456 
	C87.453529,127.126152 85.775696,133.071716 83.948051,139.310867 
	C83.751259,140.036575 83.704277,140.468689 83.460037,141.109161 
	C83.236305,141.882034 83.209839,142.446564 83.061615,143.413284 
	C80.611664,162.985596 80.556992,182.073822 85.000000,201.000000 
z"/>
<path fill="#FEFFFF" opacity="1.000000" stroke="none" 
	d="
M135.000000,1.000000 
	C156.974579,1.000000 178.949158,1.000000 200.961868,1.000000 
	C200.961868,67.564194 200.961868,134.128403 200.961868,201.000000 
	C163.646332,201.000000 126.291824,201.000000 88.505882,200.676300 
	C88.151955,199.925247 88.229462,199.497864 88.599930,198.833496 
	C89.956413,191.406204 91.019943,184.215927 92.330757,176.759674 
	C94.124321,171.314957 95.670601,166.136215 97.564758,160.918365 
	C99.575546,156.186325 101.238449,151.493362 102.913857,146.521881 
	C103.198570,145.791626 103.470772,145.339905 104.120972,144.887360 
	C106.049225,142.810211 107.599480,140.733902 109.146591,138.661789 
	C110.158272,139.157516 111.346542,139.739761 113.006271,140.553024 
	C113.006271,135.911392 113.006271,131.962631 113.091324,127.696159 
	C113.734795,126.250076 114.293205,125.121704 114.931168,123.792221 
	C115.010719,123.591110 115.065384,123.162025 115.320328,123.062256 
	C115.763550,122.659431 115.951828,122.356377 116.098190,122.050140 
	C116.056274,122.046967 116.079048,122.127907 116.420120,122.039032 
	C119.967216,117.673164 123.033028,113.281212 126.418571,109.151367 
	C129.832764,104.986565 133.564316,101.081924 137.378082,96.992424 
	C137.886398,96.740501 138.034302,96.480347 138.376556,96.046463 
	C142.587402,92.628517 146.464752,89.305176 150.478638,85.882980 
	C150.495865,85.524750 150.376556,85.265373 150.129135,84.773712 
	C149.933365,84.196777 149.865723,83.852135 149.888916,83.117065 
	C152.053268,79.844971 154.981552,77.070213 151.624649,73.528915 
	C149.854538,74.477768 148.438766,75.236687 146.781479,75.703979 
	C144.012344,68.936234 141.484695,62.460110 138.916351,55.620659 
	C137.909683,53.129250 136.943726,51.001171 135.675934,48.603271 
	C131.893158,48.230408 128.412186,48.127357 125.015038,47.644684 
	C128.402420,45.559383 131.706009,43.853706 135.429642,42.061295 
	C139.765060,41.530933 143.680435,41.087303 147.885437,40.610859 
	C147.885437,39.623409 148.202454,38.393772 147.836075,37.421700 
	C144.421463,28.361807 140.803192,19.378105 137.440369,10.299572 
	C136.332520,7.308760 135.797150,4.105899 135.000000,1.000000 
M147.627655,45.990837 
	C149.002380,46.482479 150.377090,46.974125 151.751816,47.465767 
	C152.195984,45.832127 152.640152,44.198490 153.084320,42.564854 
	C152.531036,42.231419 151.977753,41.897987 151.424469,41.564552 
	C150.054001,42.822891 148.683533,44.081230 147.627655,45.990837 
z"/>
<path fill="#081F78" opacity="1.000000" stroke="none" 
	d="
M130.000000,1.000000 
	C130.750000,1.000000 131.500000,1.000000 132.635162,1.400829 
	C134.956543,8.513425 136.786407,15.258447 138.870270,21.924057 
	C140.055298,25.714502 141.411072,29.493700 143.140182,33.059639 
	C144.757782,36.395592 144.020126,38.577656 140.469162,38.972397 
	C139.326508,39.099422 138.159271,39.005169 136.996689,38.629585 
	C135.726273,34.901890 134.561172,31.515308 133.177704,28.220415 
	C130.451660,21.728043 127.667686,15.257540 124.731903,8.858632 
	C124.340317,8.005123 122.925606,7.621018 121.760071,6.906290 
	C121.330650,6.530378 121.125862,6.267713 121.204102,5.719024 
	C122.930275,5.282497 124.378464,4.970702 125.815506,5.015586 
	C128.671265,5.104784 130.146973,3.946794 130.000000,1.000000 
z"/>
<path fill="#080F26" opacity="1.000000" stroke="none" 
	d="
M88.306976,199.070496 
	C88.229462,199.497864 88.151955,199.925247 88.037224,200.676300 
	C87.250000,201.000000 86.500000,201.000000 85.375000,201.000000 
	C80.556992,182.073822 80.611664,162.985596 83.399933,143.488678 
	C83.698303,146.555084 83.304794,149.958710 83.456535,153.337845 
	C83.557373,155.583435 84.437454,157.794067 85.006142,160.484589 
	C85.125244,166.308090 85.206947,171.667343 85.225319,177.364731 
	C85.200546,178.158218 85.239105,178.613571 85.195816,179.512878 
	C86.178307,186.328049 87.242645,192.699280 88.306976,199.070496 
z"/>
<path fill="#192564" opacity="1.000000" stroke="none" 
	d="
M137.003281,39.012146 
	C138.159271,39.005169 139.326508,39.099422 140.469162,38.972397 
	C144.020126,38.577656 144.757782,36.395592 143.140182,33.059639 
	C141.411072,29.493700 140.055298,25.714502 138.870270,21.924057 
	C136.786407,15.258447 134.956543,8.513425 133.010162,1.400829 
	C133.444443,1.000000 133.888901,1.000000 134.666672,1.000000 
	C135.797150,4.105899 136.332520,7.308760 137.440369,10.299572 
	C140.803192,19.378105 144.421463,28.361807 147.836075,37.421700 
	C148.202454,38.393772 147.885437,39.623409 147.885437,40.610859 
	C143.680435,41.087303 139.765060,41.530933 135.042648,41.992512 
	C131.846298,41.957615 129.456985,41.904770 127.285919,41.598999 
	C129.004196,40.898621 130.504227,40.451168 132.376648,40.004990 
	C134.167114,39.674892 135.585205,39.343517 137.003281,39.012146 
z"/>
<path fill="#25386B" opacity="1.000000" stroke="none" 
	d="
M129.562500,1.000000 
	C130.146973,3.946794 128.671265,5.104784 125.815506,5.015586 
	C124.378464,4.970702 122.930275,5.282497 120.848419,5.755411 
	C117.791168,6.038079 115.372635,5.998337 113.186440,5.705095 
	C114.698387,5.015234 115.977997,4.578872 117.257607,4.142510 
	C119.122902,3.327799 120.988197,2.513088 122.926743,1.349189 
	C125.041664,1.000000 127.083336,1.000000 129.562500,1.000000 
z"/>
<path fill="#365CAC" opacity="1.000000" stroke="none" 
	d="
M72.999519,17.312458 
	C76.657211,15.899170 80.250618,14.278383 83.987534,13.120840 
	C89.707039,11.349165 95.525467,9.896883 102.051598,8.173657 
	C105.144737,7.618824 107.488190,7.199362 109.900696,7.081903 
	C109.996742,7.588756 110.023735,7.793605 109.860023,8.249107 
	C109.096230,9.305026 108.523140,10.110291 107.578629,10.944861 
	C105.799408,12.314129 104.391602,13.654091 102.665199,15.015934 
	C101.565193,15.362112 100.783783,15.686410 99.700783,16.138306 
	C98.595795,17.173822 97.792397,18.081741 96.645248,19.026213 
	C94.530716,21.038610 92.759926,23.014454 90.606384,24.992878 
	C87.483330,26.664379 84.743027,28.333303 81.733170,30.190876 
	C80.295425,31.900736 79.127235,33.421947 77.621544,34.991791 
	C75.513504,36.351505 73.742973,37.662586 71.624664,39.043930 
	C70.856010,40.360466 70.435135,41.606731 69.763992,42.889221 
	C69.345802,42.910587 69.177879,42.895725 68.960632,42.575390 
	C68.286972,41.839359 67.662621,41.408802 67.015678,40.984367 
	C66.993080,40.990486 67.023026,40.954166 66.965698,40.614594 
	C64.936943,39.184834 62.965530,38.094654 60.997055,37.002235 
	C61.000000,37.000000 60.995518,37.005756 61.001022,36.622780 
	C59.401588,33.670650 57.796650,31.101498 55.900574,28.066296 
	C56.074234,27.533003 56.505295,26.209286 56.958794,24.926140 
	C56.981236,24.966715 56.894711,24.933352 57.292473,24.951681 
	C62.125343,23.647833 66.560448,22.325655 70.997780,21.001738 
	C71.000000,21.000000 71.003464,20.995531 71.342682,20.938238 
	C72.121109,19.691450 72.560310,18.501955 72.999519,17.312458 
z"/>
<path fill="#101C57" opacity="1.000000" stroke="none" 
	d="
M69.009949,42.880863 
	C69.177879,42.895725 69.345802,42.910587 70.082710,43.036972 
	C72.767403,44.115486 74.883102,45.082470 76.993332,46.415657 
	C74.995453,49.145550 73.438904,52.334641 70.904915,53.672707 
	C67.409103,55.518665 66.481041,56.936096 68.758492,60.323864 
	C69.891876,62.009811 70.326675,64.165382 70.888336,66.364182 
	C70.332497,66.831696 69.965797,67.043526 69.599106,67.255348 
	C67.263611,63.286552 64.928116,59.317753 62.295242,54.714024 
	C62.668335,49.642216 63.338810,45.205345 64.385590,40.802780 
	C65.515610,40.876110 66.269318,40.915138 67.023026,40.954166 
	C67.023026,40.954166 66.993080,40.990486 67.103821,41.260902 
	C67.813019,41.981167 68.411484,42.431015 69.009949,42.880863 
z"/>
<path fill="#28358D" opacity="1.000000" stroke="none" 
	d="
M69.722595,67.576813 
	C69.965797,67.043526 70.332497,66.831696 71.175621,66.188751 
	C75.104919,63.180813 78.557777,60.603989 82.338455,58.020481 
	C83.103241,57.992413 83.540207,57.971027 83.984970,58.373215 
	C83.121178,61.647285 82.417938,64.564178 81.327614,67.328392 
	C80.362732,69.774590 78.668449,72.079002 82.008530,74.334290 
	C82.018227,75.110069 82.025032,75.553337 81.638733,75.998955 
	C80.460014,76.020378 79.674400,76.039444 78.888786,76.058517 
	C75.874557,73.338440 72.860321,70.618355 69.722595,67.576813 
z"/>
<path fill="#1E2341" opacity="1.000000" stroke="none" 
	d="
M64.009277,40.768471 
	C63.338810,45.205345 62.668335,49.642216 61.990875,54.519531 
	C57.814079,48.386116 54.407166,41.515800 54.211880,33.280457 
	C56.824631,34.307598 58.910076,35.656677 60.995518,37.005756 
	C60.995518,37.005756 61.000000,37.000000 61.000771,37.231949 
	C61.001537,37.463898 61.027439,37.922726 61.023766,38.306515 
	C61.815372,39.403660 62.610657,40.117016 63.554832,40.795971 
	C63.703724,40.761574 64.009277,40.768471 64.009277,40.768471 
z"/>
<path fill="#0B1238" opacity="1.000000" stroke="none" 
	d="
M84.968735,160.020340 
	C84.437454,157.794067 83.557373,155.583435 83.456535,153.337845 
	C83.304794,149.958710 83.698303,146.555084 83.521690,143.086487 
	C83.209839,142.446564 83.236305,141.882034 83.728943,141.034683 
	C84.162704,140.173660 84.130287,139.595474 84.097870,139.017273 
	C85.775696,133.071716 87.453529,127.126152 89.485840,121.017479 
	C89.840324,120.854362 90.034325,121.021996 89.975616,121.416801 
	C88.944633,128.434937 87.844315,135.043198 87.061600,141.688843 
	C86.737991,144.436462 87.095238,147.264267 87.140045,150.424774 
	C87.088074,151.530762 87.038887,152.267578 86.690414,153.225159 
	C85.917000,155.637390 85.442863,157.828857 84.968735,160.020340 
z"/>
<path fill="#344F8E" opacity="1.000000" stroke="none" 
	d="
M79.021210,76.377579 
	C79.674400,76.039444 80.460014,76.020378 82.009933,76.002090 
	C84.510544,76.673706 86.246849,77.344536 87.987602,78.257416 
	C87.992058,78.499458 87.999779,78.983971 88.103653,79.209381 
	C88.407539,79.714165 88.671028,79.906708 89.189468,80.278305 
	C90.591591,81.027664 91.802231,81.511131 93.252563,82.272659 
	C96.665390,83.048424 99.838524,83.546135 103.307907,84.060059 
	C104.069862,84.395538 104.535561,84.714798 105.091003,85.236099 
	C105.343163,85.708130 105.580124,85.866707 106.218460,85.945862 
	C106.981087,85.959732 107.416870,85.941628 107.853165,86.216629 
	C107.377037,87.029732 106.900391,87.549728 106.423752,88.069725 
	C104.358635,87.367188 102.340919,86.425537 100.219894,86.004951 
	C92.485260,84.471222 84.823586,82.867073 79.021210,76.377579 
z"/>
<path fill="#1E376D" opacity="1.000000" stroke="none" 
	d="
M106.196068,88.336670 
	C106.900391,87.549728 107.377037,87.029732 108.053192,86.184433 
	C108.252708,85.859138 108.654114,85.831436 108.915527,86.016052 
	C109.113228,87.468781 109.049507,88.736885 108.770569,90.110489 
	C108.287529,90.412766 108.106712,90.670593 108.005470,91.322617 
	C107.991714,92.100044 107.985397,92.544312 107.626022,93.028893 
	C103.607880,95.779930 101.170891,99.091515 101.527840,103.974945 
	C100.013176,104.024773 98.909813,104.070908 97.616196,104.104538 
	C97.425934,104.092033 97.053215,104.011383 97.053223,104.011383 
	C100.024940,98.875458 102.996666,93.739540 106.196068,88.336670 
z"/>
<path fill="#E9F4F9" opacity="1.000000" stroke="none" 
	d="
M54.111233,26.097013 
	C54.883282,24.612625 55.367001,22.851326 56.479019,21.693439 
	C60.543430,17.461401 65.850792,16.789228 71.552628,17.348316 
	C66.777222,20.081795 61.835968,22.507574 56.894711,24.933353 
	C56.894711,24.933352 56.981236,24.966715 56.644737,24.970329 
	C55.575905,25.348299 54.843567,25.722656 54.111233,26.097013 
z"/>
<path fill="#3C5894" opacity="1.000000" stroke="none" 
	d="
M54.093544,26.082275 
	C54.843567,25.722656 55.575905,25.348299 56.622295,24.929754 
	C56.505295,26.209286 56.074234,27.533003 55.900574,28.066296 
	C57.796650,31.101498 59.401588,33.670650 61.001022,36.622780 
	C58.910076,35.656677 56.824631,34.307598 54.373634,32.946228 
	C53.558502,31.158211 53.108925,29.382483 53.086914,27.246246 
	C53.713905,26.613562 53.913330,26.341383 54.112755,26.069204 
	C54.112755,26.069204 54.075859,26.067539 54.093544,26.082275 
z"/>
<path fill="#15255B" opacity="1.000000" stroke="none" 
	d="
M96.702454,104.095001 
	C97.053215,104.011383 97.425934,104.092033 97.699547,104.497192 
	C96.976479,108.595642 95.979805,112.288933 94.752243,116.000641 
	C94.521370,116.019051 94.059128,116.054070 93.885880,115.800369 
	C93.142227,115.365631 92.571815,115.184601 91.792892,115.006241 
	C91.584389,115.008926 91.167435,115.018150 91.167435,115.018150 
	C92.895523,111.404976 94.623604,107.791801 96.702454,104.095001 
z"/>
<path fill="#3C5894" opacity="1.000000" stroke="none" 
	d="
M57.292473,24.951683 
	C61.835968,22.507574 66.777222,20.081795 71.985039,17.402042 
	C72.251602,17.148069 72.623802,17.238003 72.811661,17.275230 
	C72.560310,18.501955 72.121109,19.691450 71.288513,20.799049 
	C70.807640,20.668606 70.720169,20.620056 70.632690,20.571507 
	C70.753647,20.715496 70.874603,20.859486 70.995560,21.003475 
	C66.560448,22.325655 62.125343,23.647833 57.292473,24.951683 
z"/>
<path fill="#E5F2F8" opacity="1.000000" stroke="none" 
	d="
M109.831642,6.779899 
	C107.488190,7.199362 105.144737,7.618824 102.404221,8.009665 
	C106.107559,4.068591 110.627602,1.604633 116.875282,3.963463 
	C115.977997,4.578872 114.698387,5.015234 112.845413,5.691222 
	C111.458580,6.213865 110.645111,6.496881 109.831642,6.779899 
z"/>
<path fill="#0B1238" opacity="1.000000" stroke="none" 
	d="
M91.002777,115.358658 
	C91.167435,115.018150 91.584389,115.008926 91.788429,115.376572 
	C91.339752,117.503471 90.687042,119.262733 90.034325,121.021996 
	C90.034325,121.021996 89.840324,120.854362 89.743492,120.770340 
	C90.043816,119.023933 90.440971,117.361549 91.002777,115.358658 
z"/>
<path fill="#080F26" opacity="1.000000" stroke="none" 
	d="
M83.948059,139.310867 
	C84.130287,139.595474 84.162704,140.173660 83.926208,140.826324 
	C83.704277,140.468689 83.751259,140.036575 83.948059,139.310867 
z"/>
<path fill="#E9F4F9" opacity="1.000000" stroke="none" 
	d="
M53.863815,26.132954 
	C53.913330,26.341383 53.713905,26.613562 53.257133,26.937889 
	C53.204819,26.725594 53.409843,26.461149 53.863815,26.132954 
z"/>
<path fill="#2E7CBF" opacity="1.000000" stroke="none" 
	d="
M135.977753,48.873093 
	C136.943726,51.001171 137.909683,53.129250 138.733398,55.847420 
	C138.447998,56.992615 138.304871,57.547722 137.834885,58.201443 
	C134.303375,61.124111 131.098709,63.948166 127.575447,66.867889 
	C125.836983,68.309059 124.417107,69.654564 122.912956,71.138611 
	C122.828690,71.277161 122.747963,71.591270 122.422318,71.704651 
	C119.437508,73.919960 116.778336,76.021881 114.079895,77.697495 
	C113.176590,67.370285 115.566971,58.298817 121.437477,49.994076 
	C124.266899,49.983250 126.649727,49.978825 129.435150,49.990616 
	C131.884415,49.628922 133.931091,49.251007 135.977753,48.873093 
z"/>
<path fill="#092276" opacity="1.000000" stroke="none" 
	d="
M114.119171,78.123795 
	C116.778336,76.021881 119.437508,73.919960 122.497314,72.146149 
	C122.627274,74.814850 122.356590,77.155457 122.084320,79.509895 
	C125.329002,79.509895 129.205460,78.448540 130.198639,79.691345 
	C134.803421,85.453453 141.245087,83.885338 147.156494,85.201904 
	C144.199753,87.939507 141.097214,90.472527 137.829071,93.091736 
	C137.599121,93.282906 137.456696,93.448006 137.483505,93.482849 
	C137.626343,93.668442 137.811554,93.821411 137.989044,94.344940 
	C138.011673,95.183159 138.027374,95.662117 138.043060,96.141075 
	C138.034302,96.480347 137.886398,96.740501 137.080750,96.969437 
	C136.363754,97.005440 136.165375,96.993568 135.976974,96.599045 
	C135.506104,95.090370 134.785690,92.941200 134.579803,92.989410 
	C130.468048,93.952202 128.382355,90.396355 125.342293,89.068451 
	C120.561775,86.980316 115.735115,84.997833 111.079208,82.692688 
	C112.131699,81.267967 113.032959,80.121170 113.995544,78.746269 
	C114.056862,78.518166 114.095390,78.047340 114.082977,78.071732 
	C114.070557,78.096115 114.119164,78.123795 114.119171,78.123795 
z"/>
<path fill="#163E90" opacity="1.000000" stroke="none" 
	d="
M94.983124,115.982231 
	C95.979805,112.288933 96.976479,108.595642 97.889801,104.509689 
	C98.909813,104.070908 100.013176,104.024773 101.792694,103.984116 
	C102.644989,103.992462 102.821121,103.995316 102.998627,103.999184 
	C103.000000,104.000198 103.002571,104.002663 103.090942,104.170212 
	C103.453789,104.225983 103.728264,104.114189 104.281227,104.248459 
	C105.701416,107.267838 106.924500,112.443138 107.971062,112.407692 
	C113.095215,112.234123 113.962852,116.122078 116.001488,119.396996 
	C116.027603,120.567490 116.053329,121.347702 116.079056,122.127907 
	C116.079048,122.127907 116.056274,122.046967 115.843369,122.150986 
	C115.442108,122.557343 115.253746,122.859688 115.065384,123.162025 
	C115.065384,123.162025 115.010719,123.591110 114.614258,123.739487 
	C112.895386,123.729454 111.572983,123.571053 110.250572,123.412643 
	C110.097572,123.824532 109.944572,124.236420 109.791580,124.648308 
	C109.164787,123.609161 108.537987,122.570015 107.853531,121.435272 
	C107.092682,122.350296 106.534241,123.021904 106.168007,123.462349 
	C103.439308,119.989250 100.373428,117.839706 96.001373,118.001282 
	C96.000000,117.999809 95.997398,117.996178 95.979698,117.704330 
	C95.651917,116.957024 95.341843,116.501556 95.020073,116.029877 
	C95.008377,116.013649 94.983124,115.982231 94.983124,115.982231 
z"/>
<path fill="#174896" opacity="1.000000" stroke="none" 
	d="
M96.002762,118.002762 
	C100.373428,117.839706 103.439308,119.989250 106.168007,123.462349 
	C106.534241,123.021904 107.092682,122.350296 107.853531,121.435272 
	C108.537987,122.570015 109.164787,123.609161 109.791580,124.648308 
	C109.944572,124.236420 110.097572,123.824532 110.250572,123.412643 
	C111.572983,123.571053 112.895386,123.729454 114.534706,123.940598 
	C114.293205,125.121704 113.734795,126.250076 112.750099,127.807144 
	C110.940948,130.195801 109.558083,132.155777 107.818123,134.085526 
	C106.983086,134.059372 106.505135,134.063446 105.984039,133.701736 
	C103.511726,127.512772 99.453491,124.232689 92.812210,124.606415 
	C92.887657,122.917290 92.989922,121.564827 93.320953,120.435043 
	C94.367409,119.772736 95.185081,118.887749 96.002762,118.002762 
z"/>
<path fill="#DAE7F4" opacity="1.000000" stroke="none" 
	d="
M127.067688,41.851929 
	C129.456985,41.904770 131.846298,41.957615 134.622589,42.079247 
	C131.706009,43.853706 128.402420,45.559383 124.813828,47.740913 
	C124.276749,48.396885 124.098351,48.632755 123.662567,48.989273 
	C122.886055,49.008480 122.440582,48.962788 121.903465,48.761673 
	C121.542534,48.711395 121.273254,48.816544 120.571144,48.995056 
	C118.093582,49.033585 116.048843,48.998745 113.984032,48.665543 
	C113.667610,47.634285 113.371269,46.901390 113.206467,45.892563 
	C113.896027,45.379028 114.454041,45.141430 115.418732,44.936649 
	C118.551651,44.250381 121.277901,43.531296 124.331787,42.823643 
	C125.462173,42.507362 126.264931,42.179646 127.067688,41.851929 
z"/>
<path fill="#294279" opacity="1.000000" stroke="none" 
	d="
M116.420120,122.039032 
	C116.053329,121.347702 116.027603,120.567490 116.280312,119.190361 
	C119.043251,114.412811 121.527763,110.232193 124.365372,106.007942 
	C126.155205,104.330666 127.591949,102.697014 129.407440,101.046814 
	C131.846466,99.680740 133.906738,98.331223 135.967010,96.981689 
	C136.165375,96.993568 136.363754,97.005440 136.859497,97.040314 
	C133.564316,101.081924 129.832764,104.986565 126.418571,109.151367 
	C123.033028,113.281212 119.967216,117.673164 116.420120,122.039032 
z"/>
<path fill="#3D729F" opacity="1.000000" stroke="none" 
	d="
M88.599930,198.833496 
	C87.242645,192.699280 86.178307,186.328049 85.422234,179.794571 
	C86.348152,182.586624 86.965820,185.540924 87.583481,188.495239 
	C89.060966,186.947876 89.618256,185.321167 89.952560,183.649857 
	C90.392670,181.449661 90.657509,179.214417 91.269226,176.999756 
	C91.721642,177.012054 91.902557,177.018860 92.083481,177.025650 
	C91.019943,184.215927 89.956413,191.406204 88.599930,198.833496 
z"/>
<path fill="#E5F2F8" opacity="1.000000" stroke="none" 
	d="
M108.175201,134.115753 
	C109.558083,132.155777 110.940948,130.195801 112.665039,128.124847 
	C113.006271,131.962631 113.006271,135.911392 113.006271,140.553024 
	C111.346542,139.739761 110.158272,139.157516 109.146591,138.661789 
	C107.599480,140.733902 106.049225,142.810211 104.196259,144.532166 
	C105.320770,140.823761 106.747986,137.469757 108.175201,134.115753 
z"/>
<path fill="#396195" opacity="1.000000" stroke="none" 
	d="
M107.818115,134.085510 
	C106.747986,137.469757 105.320770,140.823761 103.818260,144.532990 
	C103.470772,145.339905 103.198570,145.791626 102.648468,146.756821 
	C100.642639,151.309052 98.914719,155.347809 97.125259,158.949097 
	C97.030952,157.339737 96.998177,156.167831 97.118698,154.665497 
	C98.527679,150.232712 99.783363,146.130371 101.382401,141.972168 
	C103.159569,139.300064 104.593376,136.683792 106.027184,134.067520 
	C106.505135,134.063446 106.983086,134.059372 107.818115,134.085510 
z"/>
<path fill="#192564" opacity="1.000000" stroke="none" 
	d="
M138.161728,58.102829 
	C138.304871,57.547722 138.447998,56.992615 138.774094,56.210747 
	C141.484695,62.460110 144.012344,68.936234 146.760925,76.038727 
	C147.017227,77.108971 147.052597,77.552849 146.766296,77.849068 
	C143.581741,72.770836 138.726624,68.731667 139.872955,62.011784 
	C140.072800,60.840199 138.770325,59.412331 138.161728,58.102829 
z"/>
<path fill="#192564" opacity="1.000000" stroke="none" 
	d="
M137.994675,93.005554 
	C141.097214,90.472527 144.199753,87.939507 147.155487,84.734314 
	C147.096710,82.181618 147.184708,80.301079 147.518066,78.685303 
	C148.441620,80.469200 149.119843,81.988342 149.798065,83.507484 
	C149.865723,83.852135 149.933365,84.196777 150.095871,85.022408 
	C150.241180,85.662865 150.291626,85.822350 150.342087,85.981827 
	C146.464752,89.305176 142.587402,92.628517 138.376556,96.046463 
	C138.027374,95.662117 138.011673,95.183159 137.995834,94.100052 
	C137.995697,93.495911 137.994675,93.005547 137.994675,93.005554 
z"/>
<path fill="#4373A5" opacity="1.000000" stroke="none" 
	d="
M92.330765,176.759674 
	C91.902557,177.018860 91.721642,177.012054 91.274452,176.582764 
	C91.347198,173.446320 91.686226,170.732361 92.303757,167.805313 
	C93.976807,165.410690 95.371346,163.229156 96.875946,161.011612 
	C96.986000,160.975601 97.216888,160.957458 97.216888,160.957458 
	C95.670601,166.136215 94.124321,171.314957 92.330765,176.759674 
z"/>
<path fill="#EBF0F4" opacity="1.000000" stroke="none" 
	d="
M149.888916,83.117065 
	C149.119843,81.988342 148.441620,80.469200 147.537582,78.550766 
	C147.311768,78.151466 147.087952,77.996719 147.087952,77.996719 
	C147.052597,77.552849 147.017227,77.108971 147.002426,76.330353 
	C148.438766,75.236687 149.854538,74.477768 151.624649,73.528915 
	C154.981552,77.070213 152.053268,79.844971 149.888916,83.117065 
z"/>
<path fill="#E5F2F8" opacity="1.000000" stroke="none" 
	d="
M97.186798,159.386566 
	C98.914719,155.347809 100.642639,151.309052 102.635956,147.035355 
	C101.238449,151.493362 99.575546,156.186325 97.564766,160.918365 
	C97.216888,160.957458 96.986000,160.975601 96.996521,160.748932 
	C97.066963,160.143692 97.126877,159.765137 97.186798,159.386566 
z"/>
<path fill="#FFFFF5" opacity="1.000000" stroke="none" 
	d="
M147.470367,45.665203 
	C148.683533,44.081230 150.054001,42.822891 151.424469,41.564552 
	C151.977753,41.897987 152.531036,42.231419 153.084320,42.564854 
	C152.640152,44.198490 152.195984,45.832127 151.751816,47.465767 
	C150.377090,46.974125 149.002380,46.482479 147.470367,45.665203 
z"/>
<path fill="#D4EDF9" opacity="1.000000" stroke="none" 
	d="
M123.993614,48.924377 
	C124.098351,48.632755 124.276749,48.396885 124.730019,48.120537 
	C128.412186,48.127357 131.893158,48.230408 135.675934,48.603275 
	C133.931091,49.251007 131.884415,49.628922 129.223511,49.670853 
	C127.070724,49.198044 125.532173,49.061211 123.993614,48.924377 
z"/>
<path fill="#294279" opacity="1.000000" stroke="none" 
	d="
M115.320328,123.062256 
	C115.253746,122.859688 115.442108,122.557343 115.885292,122.154160 
	C115.951828,122.356377 115.763550,122.659431 115.320328,123.062256 
z"/>
<path fill="#EBF0F4" opacity="1.000000" stroke="none" 
	d="
M150.478638,85.882980 
	C150.291626,85.822350 150.241180,85.662865 150.223984,85.254684 
	C150.376556,85.265373 150.495865,85.524750 150.478638,85.882980 
z"/>
<path fill="#133488" opacity="1.000000" stroke="none" 
	d="
M127.285919,41.598999 
	C126.264931,42.179646 125.462173,42.507362 124.339012,42.444447 
	C124.003601,39.876274 124.612503,37.452885 123.867775,35.562874 
	C120.249641,26.380583 116.268867,17.341185 112.251060,7.860776 
	C112.342957,7.855027 111.196838,7.926740 110.050728,7.998454 
	C110.023735,7.793605 109.996742,7.588756 109.900696,7.081903 
	C110.645111,6.496881 111.458580,6.213865 112.613075,5.944721 
	C115.372635,5.998337 117.791168,6.038079 120.565392,6.041434 
	C121.125862,6.267713 121.330650,6.530378 121.725723,7.263356 
	C121.697273,9.978465 120.911057,12.353618 121.389915,14.438164 
	C122.149185,17.743410 123.746704,20.857353 125.003670,24.046680 
	C126.428589,27.662174 127.808456,31.297308 129.328476,34.872643 
	C130.080856,36.642338 131.103760,38.297012 132.004272,40.003723 
	C130.504227,40.451168 129.004196,40.898621 127.285919,41.598999 
z"/>
<path fill="#0D2A81" opacity="1.000000" stroke="none" 
	d="
M132.376648,40.004993 
	C131.103760,38.297012 130.080856,36.642338 129.328476,34.872643 
	C127.808456,31.297308 126.428589,27.662174 125.003670,24.046680 
	C123.746704,20.857353 122.149185,17.743410 121.389915,14.438164 
	C120.911057,12.353618 121.697273,9.978465 121.950356,7.376603 
	C122.925606,7.621018 124.340317,8.005123 124.731903,8.858632 
	C127.667686,15.257540 130.451660,21.728043 133.177704,28.220415 
	C134.561172,31.515308 135.726273,34.901890 136.996689,38.629585 
	C135.585205,39.343517 134.167114,39.674892 132.376648,40.004993 
z"/>
<path fill="#2772BB" opacity="1.000000" stroke="none" 
	d="
M92.025253,168.018402 
	C91.686226,170.732361 91.347198,173.446320 91.002945,176.577255 
	C90.657509,179.214417 90.392670,181.449661 89.952560,183.649857 
	C89.618256,185.321167 89.060966,186.947876 87.583481,188.495239 
	C86.965820,185.540924 86.348152,182.586624 85.504074,179.350616 
	C85.239105,178.613571 85.200546,178.158218 85.587555,177.242096 
	C86.349228,173.195938 86.685318,169.610550 87.387520,166.016876 
	C89.177505,166.678528 90.601379,167.348465 92.025253,168.018402 
z"/>
<path fill="#3D729F" opacity="1.000000" stroke="none" 
	d="
M87.021408,166.025162 
	C86.685318,169.610550 86.349228,173.195938 85.650894,176.903961 
	C85.206947,171.667343 85.125244,166.308090 85.006134,160.484589 
	C85.442863,157.828857 85.917000,155.637390 86.958603,153.449020 
	C87.357841,157.643143 87.189629,161.834152 87.021408,166.025162 
z"/>
<path fill="#205FAA" opacity="1.000000" stroke="none" 
	d="
M90.989136,24.990299 
	C92.759926,23.014454 94.530716,21.038610 96.649200,19.459265 
	C98.776527,26.099930 100.244339,32.461151 102.518562,38.519665 
	C103.236496,40.432240 106.112747,41.534630 107.996964,43.371750 
	C107.330040,45.488842 106.667374,47.242001 105.759041,48.998306 
	C105.513382,49.001450 105.022026,48.999557 104.575287,49.007195 
	C101.742348,48.947491 99.356163,48.880146 96.978043,48.411163 
	C94.987129,40.336445 92.988136,32.663372 90.989136,24.990299 
z"/>
<path fill="#143C8D" opacity="1.000000" stroke="none" 
	d="
M109.860023,8.249106 
	C111.196838,7.926740 112.342957,7.855027 112.251060,7.860776 
	C116.268867,17.341185 120.249641,26.380583 123.867775,35.562874 
	C124.612503,37.452885 124.003601,39.876274 124.011383,42.433014 
	C121.277901,43.531296 118.551651,44.250381 115.413010,44.619637 
	C114.996292,43.847092 114.991959,43.424381 115.326981,42.998238 
	C116.445938,42.663391 117.225540,42.331970 118.320030,41.860336 
	C120.924248,40.667118 121.752541,39.311478 119.700508,37.192497 
	C118.785332,36.247463 117.725739,35.275917 117.242935,34.105511 
	C114.067482,26.407629 111.031517,18.652208 107.950050,10.915556 
	C108.523140,10.110291 109.096230,9.305026 109.860023,8.249106 
z"/>
<path fill="#194D9B" opacity="1.000000" stroke="none" 
	d="
M118.005150,42.000553 
	C117.225540,42.331970 116.445938,42.663391 114.911469,42.999104 
	C112.769241,43.002010 111.381874,43.000626 109.958069,42.633980 
	C106.615211,33.516052 103.308792,24.763380 100.002373,16.010708 
	C100.783783,15.686410 101.565193,15.362112 102.978775,15.169263 
	C104.788002,17.216999 106.124687,19.054735 107.113289,21.063757 
	C110.588097,28.125187 111.394455,36.567039 118.005150,42.000553 
z"/>
<path fill="#154494" opacity="1.000000" stroke="none" 
	d="
M118.320030,41.860336 
	C111.394455,36.567039 110.588097,28.125187 107.113289,21.063757 
	C106.124687,19.054735 104.788002,17.216999 103.297371,15.147383 
	C104.391602,13.654091 105.799408,12.314129 107.578629,10.944860 
	C111.031517,18.652208 114.067482,26.407629 117.242935,34.105511 
	C117.725739,35.275917 118.785332,36.247463 119.700508,37.192497 
	C121.752541,39.311478 120.924248,40.667118 118.320030,41.860336 
z"/>
<path fill="#2669B3" opacity="1.000000" stroke="none" 
	d="
M90.606392,24.992878 
	C92.988136,32.663372 94.987129,40.336445 96.632652,48.423050 
	C94.542923,48.334229 92.806656,47.831882 91.051620,46.897438 
	C91.051430,40.019501 85.892242,35.832870 83.886574,30.262354 
	C83.786873,29.985447 82.654335,30.080418 82.002716,30.002228 
	C84.743027,28.333303 87.483330,26.664379 90.606392,24.992878 
z"/>
<path fill="#1C55A2" opacity="1.000000" stroke="none" 
	d="
M99.700783,16.138306 
	C103.308792,24.763380 106.615211,33.516052 109.625931,42.635109 
	C108.887215,43.003605 108.444221,43.005707 108.001221,43.007812 
	C106.112747,41.534630 103.236496,40.432240 102.518562,38.519665 
	C100.244339,32.461151 98.776527,26.099930 96.992935,19.422710 
	C97.792397,18.081741 98.595795,17.173822 99.700783,16.138306 
z"/>
<path fill="#2B71B7" opacity="1.000000" stroke="none" 
	d="
M81.733170,30.190876 
	C82.654335,30.080418 83.786873,29.985447 83.886574,30.262354 
	C85.892242,35.832870 91.051430,40.019501 90.679810,46.921677 
	C87.242485,47.193977 84.158188,47.009941 81.053253,46.629250 
	C81.032608,46.432598 80.986435,46.039833 81.039261,45.698456 
	C83.504662,41.274769 82.758011,38.792957 77.959045,34.943157 
	C79.127235,33.421947 80.295425,31.900736 81.733170,30.190876 
z"/>
<path fill="#2C7DC6" opacity="1.000000" stroke="none" 
	d="
M77.621544,34.991791 
	C82.758011,38.792957 83.504662,41.274769 80.662788,45.672226 
	C79.496025,45.834755 78.758553,45.682144 77.950150,45.195595 
	C76.768265,43.892990 75.606598,42.975525 74.561478,41.940388 
	C73.631401,41.019196 72.830406,39.967670 71.972443,38.973671 
	C73.742973,37.662586 75.513504,36.351505 77.621544,34.991791 
z"/>
<path fill="#2B71B7" opacity="1.000000" stroke="none" 
	d="
M71.624664,39.043934 
	C72.830406,39.967670 73.631401,41.019196 74.561478,41.940388 
	C75.606598,42.975525 76.768265,43.892990 77.701767,45.340454 
	C77.349144,45.895985 77.173973,45.972721 76.998810,46.049454 
	C74.883102,45.082470 72.767403,44.115486 70.332977,43.000748 
	C70.435135,41.606731 70.856010,40.360466 71.624664,39.043934 
z"/>
<path fill="#3C5894" opacity="1.000000" stroke="none" 
	d="
M64.385590,40.802780 
	C64.009277,40.768471 63.703724,40.761574 63.436813,40.492783 
	C62.455746,39.456902 61.741592,38.689816 61.027439,37.922726 
	C61.027439,37.922726 61.001537,37.463898 60.997826,37.234184 
	C62.965530,38.094654 64.936943,39.184834 66.965698,40.614594 
	C66.269318,40.915138 65.515610,40.876110 64.385590,40.802780 
z"/>
<path fill="#3C5894" opacity="1.000000" stroke="none" 
	d="
M68.960632,42.575390 
	C68.411484,42.431015 67.813019,41.981167 67.126419,41.254784 
	C67.662621,41.408802 68.286972,41.839359 68.960632,42.575390 
z"/>
<path fill="#0A1869" opacity="1.000000" stroke="none" 
	d="
M76.993332,46.415657 
	C77.173973,45.972721 77.349144,45.895985 77.772690,45.674393 
	C78.758553,45.682144 79.496025,45.834755 80.609970,46.013603 
	C80.986435,46.039833 81.032608,46.432598 81.028732,47.092888 
	C81.353455,51.177841 81.682053,54.602505 82.010643,58.027164 
	C78.557777,60.603989 75.104919,63.180813 71.364769,65.933075 
	C70.326675,64.165382 69.891876,62.009811 68.758492,60.323864 
	C66.481041,56.936096 67.409103,55.518665 70.904915,53.672707 
	C73.438904,52.334641 74.995453,49.145550 76.993332,46.415657 
z"/>
<path fill="#27469C" opacity="1.000000" stroke="none" 
	d="
M87.983139,78.015373 
	C86.246849,77.344536 84.510544,76.673706 82.403046,75.999733 
	C82.025032,75.553337 82.018227,75.110069 82.392548,74.323814 
	C86.128517,71.546333 89.326233,60.519516 88.298569,55.825104 
	C91.393631,54.426327 94.182571,53.187160 97.100067,52.258511 
	C97.365364,53.032753 97.743362,53.591717 97.603424,53.946220 
	C94.430916,61.982796 91.201706,69.996979 87.983139,78.015373 
z"/>
<path fill="#031C73" opacity="1.000000" stroke="none" 
	d="
M96.971512,51.947990 
	C94.182571,53.187160 91.393631,54.426327 87.967163,55.851250 
	C86.212151,56.674553 85.094666,57.312096 83.977180,57.949638 
	C83.540207,57.971027 83.103241,57.992413 82.338455,58.020481 
	C81.682053,54.602505 81.353455,51.177841 81.049377,47.289543 
	C84.158188,47.009941 87.242485,47.193977 90.698586,47.353775 
	C92.806656,47.831882 94.542923,48.334229 96.624573,48.824692 
	C99.356163,48.880146 101.742348,48.947491 104.424095,49.274002 
	C103.801216,49.985146 102.882782,50.437119 101.582870,50.900833 
	C99.791435,51.257717 98.381477,51.602852 96.971512,51.947990 
z"/>
<path fill="#273D97" opacity="1.000000" stroke="none" 
	d="
M83.984970,58.373215 
	C85.094666,57.312096 86.212151,56.674553 87.661041,56.010860 
	C89.326233,60.519516 86.128517,71.546333 82.389648,73.991302 
	C78.668449,72.079002 80.362732,69.774590 81.327614,67.328392 
	C82.417938,64.564178 83.121178,61.647285 83.984970,58.373215 
z"/>
<path fill="#101C57" opacity="1.000000" stroke="none" 
	d="
M61.023766,38.306515 
	C61.741592,38.689816 62.455746,39.456902 63.287918,40.527180 
	C62.610657,40.117016 61.815372,39.403660 61.023766,38.306515 
z"/>
<path fill="#2461A6" opacity="1.000000" stroke="none" 
	d="
M87.387520,166.016876 
	C87.189629,161.834152 87.357841,157.643143 87.257881,153.228271 
	C87.038887,152.267578 87.088074,151.530762 87.375206,150.139740 
	C88.104095,147.006744 88.595055,144.527954 89.323807,142.236084 
	C90.041367,143.282806 90.521133,144.142609 91.000626,145.451416 
	C90.999001,154.857132 90.999001,154.857132 96.965401,154.995926 
	C96.998177,156.167831 97.030952,157.339737 97.125259,158.949097 
	C97.126877,159.765137 97.066963,160.143692 96.886467,160.784943 
	C95.371346,163.229156 93.976807,165.410690 92.303757,167.805313 
	C90.601379,167.348465 89.177505,166.678528 87.387520,166.016876 
z"/>
<path fill="#08194D" opacity="1.000000" stroke="none" 
	d="
M89.085999,142.049164 
	C88.595055,144.527954 88.104095,147.006744 87.377983,149.770569 
	C87.095238,147.264267 86.737991,144.436462 87.061600,141.688843 
	C87.844315,135.043198 88.944633,128.434937 89.975616,121.416801 
	C90.687042,119.262733 91.339752,117.503471 91.996933,115.373886 
	C92.571815,115.184601 93.142227,115.365631 93.874512,116.156471 
	C93.721649,117.914970 93.406914,119.063667 93.092178,120.212364 
	C92.989922,121.564827 92.887657,122.917290 92.566803,124.877838 
	C91.606270,128.658646 90.864334,131.831360 90.067474,135.399567 
	C89.703697,137.879761 89.394852,139.964462 89.085999,142.049164 
z"/>
<path fill="#2D60A9" opacity="1.000000" stroke="none" 
	d="
M101.964348,50.889091 
	C102.882782,50.437119 103.801216,49.985146 104.870834,49.266365 
	C105.022026,48.999557 105.513382,49.001450 106.073868,48.859283 
	C107.736656,48.474133 108.838943,48.231148 109.956924,48.238548 
	C109.984146,48.655788 109.995667,48.822643 109.997803,49.337700 
	C104.022690,59.644218 103.940407,71.420006 100.189896,82.259750 
	C101.254051,83.024040 102.132851,83.533943 103.011658,84.043846 
	C99.838524,83.546135 96.665390,83.048424 93.528976,82.036110 
	C94.530022,78.380402 95.587303,75.264290 96.439720,72.093117 
	C98.335693,65.039742 100.129120,57.958797 101.964348,50.889091 
z"/>
<path fill="#2D73B9" opacity="1.000000" stroke="none" 
	d="
M103.307907,84.060059 
	C102.132851,83.533943 101.254051,83.024040 100.577217,82.251907 
	C105.559921,81.889198 106.851372,78.575600 107.954056,74.681877 
	C110.224602,66.664268 109.797523,57.713242 115.931740,50.986420 
	C116.098686,50.803352 115.965385,50.346481 116.390457,50.007805 
	C118.202843,49.999043 119.596870,49.999760 120.990891,50.000477 
	C115.566971,58.298817 113.176590,67.370285 114.079887,77.697495 
	C114.119164,78.123795 114.070557,78.096115 113.902725,78.128372 
	C113.651436,78.251587 113.481148,78.397224 113.498474,78.424751 
	C113.622292,78.621445 113.784332,78.794083 113.934227,78.974373 
	C113.032959,80.121170 112.131699,81.267967 110.806488,82.842178 
	C109.806396,84.123543 109.230255,84.977486 108.654114,85.831436 
	C108.654114,85.831436 108.252708,85.859138 108.052681,85.891327 
	C107.416870,85.941628 106.981087,85.959732 106.140984,85.740677 
	C105.548660,85.257637 105.303528,85.101158 105.001259,85.034065 
	C104.535561,84.714798 104.069862,84.395538 103.307907,84.060059 
z"/>
<path fill="#2752A4" opacity="1.000000" stroke="none" 
	d="
M101.582870,50.900837 
	C100.129120,57.958797 98.335693,65.039742 96.439720,72.093117 
	C95.587303,75.264290 94.530022,78.380402 93.289284,81.758057 
	C91.802231,81.511131 90.591591,81.027664 89.084137,80.053947 
	C88.587402,79.285423 88.324890,79.092178 87.999779,78.983971 
	C87.999779,78.983971 87.992058,78.499458 87.987595,78.257416 
	C91.201706,69.996979 94.430916,61.982796 97.603424,53.946220 
	C97.743362,53.591717 97.365364,53.032753 97.100067,52.258511 
	C98.381477,51.602852 99.791435,51.257717 101.582870,50.900837 
z"/>
<path fill="#2D60A9" opacity="1.000000" stroke="none" 
	d="
M105.091003,85.236099 
	C105.303528,85.101158 105.548660,85.257637 105.814140,85.708694 
	C105.580124,85.866707 105.343163,85.708130 105.091003,85.236099 
z"/>
<path fill="#27469C" opacity="1.000000" stroke="none" 
	d="
M88.103653,79.209381 
	C88.324890,79.092178 88.587402,79.285423 88.892654,79.788055 
	C88.671028,79.906708 88.407539,79.714165 88.103653,79.209381 
z"/>
<path fill="#0B297F" opacity="1.000000" stroke="none" 
	d="
M108.915527,86.016052 
	C109.230255,84.977486 109.806396,84.123543 110.655258,83.120110 
	C115.735115,84.997833 120.561775,86.980316 125.342293,89.068451 
	C128.382355,90.396355 130.468048,93.952202 134.579803,92.989410 
	C134.785690,92.941200 135.506104,95.090370 135.976974,96.599045 
	C133.906738,98.331223 131.846466,99.680740 129.168457,100.752274 
	C121.693520,97.979065 114.836296,95.483826 107.979080,92.988586 
	C107.985397,92.544312 107.991714,92.100044 108.221100,91.217957 
	C108.712524,90.583138 108.893059,90.324745 108.985779,90.004990 
	C109.049507,88.736885 109.113228,87.468781 108.915527,86.016052 
z"/>
<path fill="#0F3285" opacity="1.000000" stroke="none" 
	d="
M107.626022,93.028893 
	C114.836296,95.483826 121.693520,97.979065 128.789703,100.768829 
	C127.591949,102.697014 126.155205,104.330666 124.005905,105.836205 
	C122.675285,105.491714 121.955009,104.950615 121.454636,105.108116 
	C114.933235,107.160904 109.690865,104.671539 104.830208,100.632996 
	C104.675018,100.504051 104.227280,100.727203 103.583244,100.849274 
	C103.401451,101.826149 103.199356,102.912155 102.997253,103.998169 
	C102.821121,103.995316 102.644989,103.992462 102.203995,103.980438 
	C101.170891,99.091515 103.607880,95.779930 107.626022,93.028893 
z"/>
<path fill="#0F3285" opacity="1.000000" stroke="none" 
	d="
M108.770569,90.110489 
	C108.893059,90.324745 108.712524,90.583138 108.228539,90.884804 
	C108.106712,90.670593 108.287529,90.412766 108.770569,90.110489 
z"/>
<path fill="#163E90" opacity="1.000000" stroke="none" 
	d="
M93.320953,120.435043 
	C93.406914,119.063667 93.721649,117.914970 94.047760,116.410172 
	C94.059128,116.054070 94.521370,116.019051 94.752243,116.000641 
	C94.983124,115.982231 95.008377,116.013649 95.032364,116.320343 
	C95.370041,117.083412 95.683723,117.539795 95.997398,117.996178 
	C95.997398,117.996178 96.000000,117.999809 96.001381,118.001282 
	C95.185081,118.887749 94.367409,119.772736 93.320953,120.435043 
z"/>
<path fill="#365CAC" opacity="1.000000" stroke="none" 
	d="
M70.997780,21.001736 
	C70.874603,20.859486 70.753647,20.715496 70.632690,20.571507 
	C70.720169,20.620056 70.807640,20.668606 70.949295,20.856342 
	C71.003464,20.995531 71.000000,21.000000 70.997780,21.001736 
z"/>
<path fill="#071871" opacity="1.000000" stroke="none" 
	d="
M146.766296,77.849068 
	C147.087952,77.996719 147.311768,78.151466 147.292236,78.286011 
	C147.184708,80.301079 147.096710,82.181618 147.009705,84.529739 
	C141.245087,83.885338 134.803421,85.453453 130.198639,79.691345 
	C129.205460,78.448540 125.329002,79.509895 122.084320,79.509895 
	C122.356590,77.155457 122.627274,74.814850 122.822952,72.032761 
	C122.747963,71.591270 122.828690,71.277161 123.330841,71.140182 
	C127.101219,71.430504 128.551559,70.112953 127.894028,66.772217 
	C131.098709,63.948166 134.303375,61.124111 137.834885,58.201443 
	C138.770325,59.412331 140.072800,60.840199 139.872955,62.011784 
	C138.726624,68.731667 143.581741,72.770836 146.766296,77.849068 
z"/>
<path fill="#2D60A9" opacity="1.000000" stroke="none" 
	d="
M121.437477,49.994076 
	C119.596870,49.999760 118.202843,49.999043 116.084351,49.999653 
	C114.606071,49.780830 113.852272,49.560677 113.323189,49.242317 
	C113.547913,49.144112 114.004112,48.963905 114.004112,48.963905 
	C116.048843,48.998745 118.093582,49.033585 120.819214,49.046364 
	C121.665108,48.988567 121.830116,48.952831 121.995117,48.917099 
	C122.440582,48.962788 122.886055,49.008480 123.662567,48.989273 
	C125.532173,49.061211 127.070724,49.198044 128.820923,49.654640 
	C126.649727,49.978825 124.266899,49.983250 121.437477,49.994076 
z"/>
<path fill="#092276" opacity="1.000000" stroke="none" 
	d="
M127.575439,66.867889 
	C128.551559,70.112953 127.101219,71.430504 123.415115,71.001633 
	C124.417107,69.654564 125.836983,68.309059 127.575439,66.867889 
z"/>
<path fill="#0B297F" opacity="1.000000" stroke="none" 
	d="
M137.829071,93.091728 
	C137.994675,93.005547 137.995697,93.495911 137.988892,93.740791 
	C137.811554,93.821411 137.626343,93.668442 137.483505,93.482849 
	C137.456696,93.448006 137.599121,93.282906 137.829071,93.091728 
z"/>
<path fill="#2E7CBF" opacity="1.000000" stroke="none" 
	d="
M113.995544,78.746269 
	C113.784332,78.794083 113.622292,78.621445 113.498474,78.424751 
	C113.481148,78.397224 113.651436,78.251587 113.915138,78.103981 
	C114.095390,78.047340 114.056862,78.518166 113.995544,78.746269 
z"/>
<path fill="#11398B" opacity="1.000000" stroke="none" 
	d="
M102.998627,103.999184 
	C103.199356,102.912155 103.401451,101.826149 103.583244,100.849274 
	C104.227280,100.727203 104.675018,100.504051 104.830208,100.632996 
	C109.690865,104.671539 114.933235,107.160904 121.454636,105.108116 
	C121.955009,104.950615 122.675285,105.491714 123.652817,105.879837 
	C121.527763,110.232193 119.043251,114.412811 116.279915,118.800072 
	C113.962852,116.122078 113.095215,112.234123 107.971062,112.407692 
	C106.924500,112.443138 105.701416,107.267838 104.031174,104.247650 
	C103.335945,104.001411 103.169258,104.002037 103.002571,104.002663 
	C103.002571,104.002663 103.000000,104.000198 102.998627,103.999184 
z"/>
<path fill="#174896" opacity="1.000000" stroke="none" 
	d="
M95.979698,117.704330 
	C95.683723,117.539795 95.370041,117.083412 95.044067,116.336563 
	C95.341843,116.501556 95.651917,116.957024 95.979698,117.704330 
z"/>
<path fill="#0F3285" opacity="1.000000" stroke="none" 
	d="
M103.090942,104.170212 
	C103.169258,104.002037 103.335945,104.001411 103.752686,104.001587 
	C103.728264,104.114189 103.453789,104.225983 103.090942,104.170212 
z"/>
<path fill="#194D9B" opacity="1.000000" stroke="none" 
	d="
M90.122398,135.004074 
	C90.864334,131.831360 91.606270,128.658646 92.593613,125.214493 
	C99.453491,124.232689 103.511726,127.512772 105.984039,133.701736 
	C104.593376,136.683792 103.159569,139.300064 101.122253,141.961243 
	C100.345505,142.003067 100.172272,142.000000 99.960976,141.640167 
	C99.266953,139.966492 98.550179,138.675919 97.966499,137.327728 
	C96.265060,133.397690 93.793037,132.215607 90.122398,135.004074 
M99.518410,137.406982 
	C99.518410,137.406982 99.589508,137.523987 99.518410,137.406982 
z"/>
<path fill="#265397" opacity="1.000000" stroke="none" 
	d="
M109.941238,47.988159 
	C108.838943,48.231148 107.736656,48.474133 106.319534,48.856140 
	C106.667374,47.242001 107.330040,45.488842 107.996964,43.371750 
	C108.444221,43.005707 108.887215,43.003605 109.662361,43.000366 
	C111.381874,43.000626 112.769241,43.002010 114.572113,43.002533 
	C114.991959,43.424381 114.996292,43.847092 115.006340,44.586815 
	C114.454041,45.141430 113.896027,45.379028 112.894150,45.887894 
	C111.613937,46.768826 110.777588,47.378494 109.941238,47.988159 
z"/>
<path fill="#D4EDF9" opacity="1.000000" stroke="none" 
	d="
M109.956924,48.238548 
	C110.777588,47.378494 111.613937,46.768826 112.762604,46.163826 
	C113.371269,46.901390 113.667610,47.634285 113.984032,48.665543 
	C114.004112,48.963905 113.547913,49.144112 112.940056,49.172310 
	C111.557198,49.130177 110.782188,49.059837 110.007187,48.989498 
	C109.995667,48.822643 109.984146,48.655788 109.956924,48.238548 
z"/>
<path fill="#D4EDF9" opacity="1.000000" stroke="none" 
	d="
M121.903465,48.761673 
	C121.830116,48.952831 121.665108,48.988567 121.252045,48.972996 
	C121.273254,48.816544 121.542534,48.711395 121.903465,48.761673 
z"/>
<path fill="#1D5DA9" opacity="1.000000" stroke="none" 
	d="
M99.999039,141.996948 
	C100.172272,142.000000 100.345505,142.003067 100.778900,142.017090 
	C99.783363,146.130371 98.527679,150.232712 97.118698,154.665497 
	C90.999001,154.857132 90.999001,154.857132 91.145676,145.158051 
	C92.920532,144.277847 94.550056,144.139984 97.219925,143.914078 
	C97.467125,143.743561 98.733078,142.870255 99.999039,141.996948 
z"/>
<path fill="#1D559F" opacity="1.000000" stroke="none" 
	d="
M99.960976,141.640167 
	C98.733078,142.870255 97.467125,143.743561 97.219925,143.914078 
	C94.550056,144.139984 92.920532,144.277847 91.145950,144.709076 
	C90.521133,144.142609 90.041367,143.282806 89.323799,142.236084 
	C89.394852,139.964462 89.703697,137.879761 90.067474,135.399567 
	C93.793037,132.215607 96.265060,133.397690 97.966499,137.327728 
	C98.550179,138.675919 99.266953,139.966492 99.960976,141.640167 
z"/>
<path fill="#2A68B3" opacity="1.000000" stroke="none" 
	d="
M109.997803,49.337700 
	C110.782188,49.059837 111.557198,49.130177 112.715332,49.270519 
	C113.852272,49.560677 114.606071,49.780830 115.665985,50.009132 
	C115.965385,50.346481 116.098686,50.803352 115.931740,50.986420 
	C109.797523,57.713242 110.224602,66.664268 107.954056,74.681877 
	C106.851372,78.575600 105.559921,81.889198 100.391861,81.997528 
	C103.940407,71.420006 104.022690,59.644218 109.997803,49.337700 
z"/>
<path fill="#1D559F" opacity="1.000000" stroke="none" 
	d="
M99.553955,137.465485 
	C99.589508,137.523987 99.518410,137.406982 99.553955,137.465485 
z"/>
</svg>